<svg height="768" width="1024" viewBox="0 0 1365 1024"><path d="M770.747733 600.098133a88.046933 88.046933 0 0 1-49.493333 79.172267h-77.2096a86.101333 86.101333 0 0 1-15.4624-9.6768 88.064 88.064 0 0 1 26.658133-153.1904V501.76h54.852267v14.626133a88.1152 88.1152 0 0 1 60.654933 83.712z" fill="#E2E2E2"></path><path d="M770.747733 600.098133a88.046933 88.046933 0 0 1-49.493333 79.172267h-77.2096a88.046933 88.046933 0 0 1-49.493333-79.172267v-3.515733a88.098133 88.098133 0 0 0 49.373866 75.690667s28.928-3.413333 38.621867-3.413334 38.638933 3.413333 38.638933 3.413334a88.098133 88.098133 0 0 0 49.373867-75.690667c0.170667 1.160533 0.187733 2.338133 0.187733 3.515733z" fill="#D3D3D3"></path><path d="M770.747733 600.098133a88.046933 88.046933 0 0 1-49.493333 79.172267H682.666667v-10.410667c9.693867 0 38.621867 3.413333 38.621866 3.413334a88.098133 88.098133 0 0 0 49.373867-75.690667c0.068267 1.160533 0.085333 2.338133 0.085333 3.515733z" fill="#BFBFBF"></path><path d="M753.5104 595.080533a70.946133 70.946133 0 0 1-32.085333 64.273067 25.361067 25.361067 0 0 1-16.913067 3.720533c-7.082667-0.853333-14.3872-3.003733-21.8624-3.003733s-14.7456 2.1504-21.8112 3.003733a25.6 25.6 0 0 1-17.066667-3.874133 71.0144 71.0144 0 1 1 109.824-64.119467z" fill="#F24C19"></path><path d="M721.425067 659.3536a25.258667 25.258667 0 0 1-16.913067 3.720533c-0.3584 0-0.733867 0-1.092267-0.1536a23.7568 23.7568 0 0 0 9.301334-3.566933A70.997333 70.997333 0 0 0 679.0656 529.066667h-0.750933a69.717333 69.717333 0 0 1 9.437866 0 71.0144 71.0144 0 0 1 33.672534 130.321066z" fill="#E2360E"></path><path d="M643.908267 659.3536a25.258667 25.258667 0 0 0 16.913066 3.720533c0.3584 0 0.733867 0 1.092267-0.1536a23.7568 23.7568 0 0 1-9.301333-3.566933A70.997333 70.997333 0 0 1 686.267733 529.066667h0.750934a69.717333 69.717333 0 0 0-9.437867 0 71.0144 71.0144 0 0 0-33.672533 130.321066z" fill="#F98267"></path><path d="M664.1664 511.163733h37.000533a3.259733 3.259733 0 0 1 3.259734 3.259734v20.9408h-43.52v-20.9408a3.259733 3.259733 0 0 1 3.259733-3.259734z" fill="#F24C19"></path><path d="M704.426667 514.269867v21.077333h-9.642667v-21.077333a3.2768 3.2768 0 0 0-3.413333-3.106134h9.642666a3.2768 3.2768 0 0 1 3.413334 3.106134z" fill="#E2360E"></path><path d="M710.0928 501.76h-54.852267l13.192534-150.8352a6.826667 6.826667 0 0 1 6.826666-6.1952h14.882134a6.826667 6.826667 0 0 1 6.826666 6.1952z" fill="#232323"></path><path d="M675.208533 344.7296h5.358934L677.700267 501.76h-10.3424l4.539733-156.16 3.310933-0.8704z" fill="#5E5E5E"></path><path d="M710.0928 501.76h-16.7936l-4.5056-157.013333h1.314133a6.826667 6.826667 0 0 1 6.826667 6.1952z"></path><path d="M680.96 501.777067h29.1328v9.386666H680.96z" fill="#BFBFBF"></path></svg>